# ProBuilder 5.2.0
# https://unity3d.com/unity/features/worldbuilding/probuilder
# 12/5/2023 10:33:56 PM

mtllib ./Side1.mtl
o Side1

g Side1
v 49 -0.75 100
v 47 -0.75 100
v 49 0.75 100
v 47 0.75 100
v 47 -0.75 -100
v 47 0.75 -100
v 49 -0.75 -100
v 49 0.75 -100

vt 1 -1
vt -1 -1
vt 1 0.5
vt -1 0.5
vt 97.5 -1
vt -102.5 -1
vt 97.5 0.5
vt -102.5 0.5
vt 100 -1
vt -100 -1
vt 100 0.5
vt -100 0.5
vt 97.5 0.9999956
vt -102.5 1.000004
vt -102.5 -0.9999956

vn 0 0 1
vn -1 0 0
vn 0 0 -1
vn 1 0 0
vn 0 1 0
vn 0 -1 0

usemtl Track
f 3/3/1 4/4/1 2/2/1 1/1/1
f 4/7/2 6/8/2 5/6/2 2/5/2
f 6/3/3 8/4/3 7/2/3 5/1/3
f 8/11/4 3/12/4 1/10/4 7/9/4
f 8/14/5 6/15/5 4/5/5 3/13/5
f 1/5/6 2/13/6 5/14/6 7/15/6

