# Blender 3.6.2
# www.blender.org
mtllib TurnOuter.mtl
o TurnOuter
v -25.651184 -0.750005 -42.348839
v -23.651184 -0.750005 -42.348839
v -25.651184 0.749995 -42.348839
v -23.651184 0.749995 -42.348839
v -25.557993 0.749995 -38.789948
v -25.557993 -0.750004 -38.789948
v -23.560724 0.749995 -38.894646
v -23.560724 -0.750004 -38.894646
v -25.278673 0.749996 -35.240944
v -25.278673 -0.750004 -35.240944
v -23.289623 0.749996 -35.449944
v -23.289623 -0.750004 -35.449944
v -24.813993 0.749997 -31.711243
v -24.813993 -0.750003 -31.711243
v -22.838614 0.749997 -32.024147
v -22.838614 -0.750003 -32.024147
v -24.165224 0.749997 -28.210846
v -24.165224 -0.750003 -28.210846
v -22.208933 0.749997 -28.626648
v -22.208933 -0.750003 -28.626648
v -23.334133 0.749997 -24.749146
v -23.334133 -0.750002 -24.749146
v -21.402283 0.749997 -25.266747
v -21.402283 -0.750003 -25.266747
v -22.323023 0.749998 -21.335648
v -22.323023 -0.750002 -21.335648
v -20.420914 0.749998 -21.953743
v -20.420914 -0.750002 -21.953743
v -21.134653 0.749998 -17.979843
v -21.134653 -0.750002 -17.979843
v -19.267483 0.749998 -18.696548
v -19.267483 -0.750002 -18.696548
v -19.772274 0.749999 -14.690750
v -19.772274 -0.750001 -14.690750
v -17.945183 0.749999 -15.504250
v -17.945183 -0.750001 -15.504250
v -18.239624 0.749999 -11.477448
v -18.239624 -0.750001 -11.477448
v -16.457615 0.749999 -12.385445
v -16.457615 -0.750001 -12.385445
v -16.540905 0.750000 -8.348846
v -16.540905 -0.750000 -8.348846
v -14.808865 0.750000 -9.348846
v -14.808865 -0.750000 -9.348846
v -14.680784 0.750000 -5.313339
v -14.680784 -0.750000 -5.313339
v -13.003445 0.750000 -6.402649
v -13.003445 -0.750000 -6.402649
v -12.664345 0.750000 -2.379440
v -12.664345 -0.749999 -2.379440
v -11.046305 0.750000 -3.555054
v -11.046305 -0.750000 -3.555054
v -10.497108 0.750000 0.444946
v -10.497108 -0.749999 0.444946
v -8.942813 0.750000 -0.813751
v -8.942813 -0.749999 -0.813751
v -8.185030 0.750001 3.152054
v -8.185030 -0.749999 3.152054
v -6.698740 0.750000 1.813751
v -6.698740 -0.749999 1.813751
v -5.734443 0.750002 5.734451
v -5.734443 -0.749998 5.734451
v -4.320231 0.750002 4.320160
v -4.320231 -0.749999 4.320160
v -3.152061 0.750002 8.184952
v -3.152061 -0.749998 8.184952
v -1.813800 0.750002 6.698761
v -1.813800 -0.749998 6.698761
v -0.444972 0.750002 10.497055
v -0.444972 -0.749998 10.497055
v 0.813668 0.750002 8.942749
v 0.813668 -0.749998 8.942749
v 2.379414 0.750002 12.664352
v 2.379414 -0.749997 12.664352
v 3.554986 0.750002 11.046249
v 3.554986 -0.749998 11.046249
v 5.313364 0.750002 14.680756
v 5.313364 -0.749997 14.680756
v 6.402638 0.750002 13.003357
v 6.402638 -0.749997 13.003357
v 8.348821 0.750003 16.540848
v 8.348821 -0.749997 16.540848
v 9.348825 0.750002 14.808853
v 9.348825 -0.749997 14.808853
v 11.477466 0.750003 18.239548
v 11.477466 -0.749997 18.239548
v 12.385446 0.750003 16.457550
v 12.385446 -0.749997 16.457550
v 14.690725 0.750004 19.772247
v 14.690725 -0.749996 19.772247
v 15.504205 0.750003 17.945160
v 15.504205 -0.749997 17.945160
v 17.979795 0.750004 21.134659
v 17.979795 -0.749996 21.134659
v 18.696526 0.750004 19.267456
v 18.696526 -0.749997 19.267456
v 21.335667 0.750004 22.322952
v 21.335667 -0.749996 22.322952
v 21.953697 0.750004 20.420853
v 21.953697 -0.749996 20.420853
v 24.749117 0.750004 23.334152
v 24.749117 -0.749996 23.334152
v 25.266756 0.750004 21.402252
v 25.266756 -0.749996 21.402252
v 28.210827 0.750004 24.165161
v 28.210827 -0.749996 24.165161
v 28.626646 0.750004 22.208847
v 28.626646 -0.749996 22.208847
v 31.711267 0.750004 24.813950
v 31.711267 -0.749996 24.813950
v 32.024136 0.750004 22.838547
v 32.024136 -0.749996 22.838547
v 35.240883 0.750004 25.278656
v 35.240883 -0.749996 25.278656
v 35.449944 0.750004 23.289551
v 35.449944 -0.749996 23.289551
v 38.789974 0.750004 25.557953
v 38.789974 -0.749996 25.557953
v 38.894646 0.750004 23.560654
v 38.894646 -0.749996 23.560654
v 42.348824 0.750004 25.651154
v 42.348824 -0.749996 25.651154
v 42.348824 0.750004 23.651154
v 42.348824 -0.749996 23.651154
vn -0.0000 -0.0000 -1.0000
vn -0.9997 -0.0000 0.0262
vn -0.9986 -0.0000 0.0523
vn 0.9986 -0.0000 -0.0523
vn 0.9997 -0.0000 -0.0262
vn -0.9945 -0.0000 0.1045
vn 0.9945 -0.0000 -0.1045
vn -0.9877 -0.0000 0.1564
vn 0.9877 -0.0000 -0.1564
vn -0.9781 -0.0000 0.2079
vn 0.9781 -0.0000 -0.2079
vn -0.9659 -0.0000 0.2588
vn 0.9659 -0.0000 -0.2588
vn -0.9511 -0.0000 0.3090
vn 0.9511 -0.0000 -0.3090
vn -0.9336 -0.0000 0.3584
vn 0.9336 -0.0000 -0.3584
vn -0.9135 -0.0000 0.4067
vn 0.9135 -0.0000 -0.4067
vn -0.8910 -0.0000 0.4540
vn 0.8910 -0.0000 -0.4540
vn -0.8660 -0.0000 0.5000
vn 0.8660 -0.0000 -0.5000
vn -0.8387 -0.0000 0.5446
vn 0.8387 -0.0000 -0.5446
vn -0.8090 -0.0000 0.5878
vn 0.8090 -0.0000 -0.5878
vn 0.8387 -0.0000 -0.5447
vn -0.7771 -0.0000 0.6293
vn 0.7771 -0.0000 -0.6293
vn -0.7432 -0.0000 0.6691
vn 0.7432 -0.0000 -0.6691
vn -0.7431 -0.0000 0.6691
vn -0.7071 -0.0000 0.7071
vn 0.7071 -0.0000 -0.7071
vn 0.7431 -0.0000 -0.6691
vn -0.6691 -0.0000 0.7432
vn 0.6691 -0.0000 -0.7431
vn -0.6691 -0.0000 0.7431
vn -0.6293 -0.0000 0.7771
vn 0.6293 -0.0000 -0.7772
vn 0.6691 -0.0000 -0.7432
vn -0.5878 -0.0000 0.8090
vn 0.5878 -0.0000 -0.8090
vn 0.6293 -0.0000 -0.7771
vn -0.5446 -0.0000 0.8387
vn 0.5446 -0.0000 -0.8387
vn -0.5000 -0.0000 0.8660
vn 0.5000 -0.0000 -0.8660
vn -0.4540 -0.0000 0.8910
vn 0.4540 -0.0000 -0.8910
vn -0.4068 -0.0000 0.9135
vn 0.4068 -0.0000 -0.9135
vn -0.4067 -0.0000 0.9135
vn -0.3584 -0.0000 0.9336
vn 0.3584 -0.0000 -0.9336
vn 0.4067 -0.0000 -0.9135
vn -0.3583 -0.0000 0.9336
vn -0.3090 -0.0000 0.9511
vn 0.3090 -0.0000 -0.9511
vn -0.2588 -0.0000 0.9659
vn 0.2588 -0.0000 -0.9659
vn -0.2079 -0.0000 0.9782
vn 0.2079 -0.0000 -0.9781
vn -0.2079 -0.0000 0.9781
vn -0.1564 -0.0000 0.9877
vn 0.1564 -0.0000 -0.9877
vn -0.1045 -0.0000 0.9945
vn 0.1045 -0.0000 -0.9945
vn -0.0523 -0.0000 0.9986
vn 0.0785 -0.0000 -0.9969
vn -0.0262 -0.0000 0.9997
vn 0.0262 -0.0000 -0.9997
vn 1.0000 -0.0000 -0.0000
vn -0.0000 -1.0000 -0.0000
vn -0.0000 1.0000 -0.0000
vt -69.584984 25.157681
vt -69.584984 23.157681
vt -68.107368 23.157681
vt -68.107368 25.157681
vt -64.651970 25.157681
vt -64.651970 26.657671
vt -68.107368 26.657671
vt -64.651970 23.157681
vt -68.107368 21.657690
vt -64.651970 21.657690
vt -61.196648 25.157681
vt -61.196648 26.657671
vt -61.196648 23.157681
vt -61.196648 21.657690
vt -57.741234 25.157681
vt -57.741234 26.657671
vt -57.741234 23.157681
vt -57.741234 21.657690
vt -54.285892 25.157681
vt -54.285892 26.657671
vt -54.285892 23.157681
vt -54.285892 21.657690
vt -50.830513 25.157681
vt -50.830513 26.657671
vt -50.830513 23.157681
vt -50.830513 21.657690
vt -47.375156 25.157681
vt -47.375156 26.657671
vt -47.375156 23.157681
vt -47.375156 21.657690
vt -43.919800 25.157681
vt -43.919800 26.657671
vt -43.919800 23.157681
vt -43.919800 21.657690
vt -40.464439 25.157681
vt -40.464439 26.657671
vt -40.464439 23.157681
vt -40.464439 21.657690
vt -37.009029 25.157681
vt -37.009029 26.657671
vt -37.009029 23.157681
vt -37.009029 21.657690
vt -33.553692 25.157681
vt -33.553692 26.657671
vt -33.553692 23.157681
vt -33.553692 21.657690
vt -30.098291 25.157681
vt -30.098291 26.657671
vt -30.098291 23.157681
vt -30.098291 21.657690
vt -26.642962 25.157681
vt -26.642962 26.657671
vt -26.642962 23.157681
vt -26.642962 21.657690
vt -23.187595 25.157681
vt -23.187595 26.657671
vt -23.187595 23.157681
vt -23.187595 21.657690
vt -19.732210 25.157681
vt -19.732210 26.657671
vt -19.732210 23.157681
vt -19.732210 21.657690
vt -16.276840 25.157681
vt -16.276840 26.657671
vt -16.276840 23.157681
vt -16.276840 21.657690
vt -12.821466 25.157681
vt -12.821466 26.657671
vt -12.821466 23.157681
vt -12.821466 21.657690
vt -9.366119 25.157681
vt -9.366119 26.657671
vt -9.366119 23.157681
vt -9.366119 21.657690
vt -5.910727 25.157681
vt -5.910727 26.657671
vt -5.910727 23.157681
vt -5.910727 21.657690
vt -2.455372 25.157681
vt -2.455372 26.657671
vt -2.455372 23.157681
vt -2.455372 21.657690
vt 1.000015 25.157681
vt 1.000015 26.657671
vt 1.000015 23.157681
vt 1.000015 21.657690
vt 4.455365 25.157681
vt 4.455365 26.657671
vt 4.455365 23.157681
vt 4.455365 21.657690
vt 7.910757 25.157681
vt 7.910757 26.657671
vt 7.910757 23.157681
vt 7.910757 21.657690
vt 11.366125 25.157681
vt 11.366125 26.657671
vt 11.366125 23.157681
vt 11.366125 21.657690
vt 14.821486 25.157681
vt 14.821486 26.657671
vt 14.821486 23.157681
vt 14.821486 21.657690
vt 18.276865 25.157681
vt 18.276865 26.657671
vt 18.276865 23.157681
vt 18.276865 21.657690
vt 21.732231 25.157681
vt 21.732231 26.657671
vt 21.732231 23.157681
vt 21.732231 21.657690
vt 25.187597 25.157681
vt 25.187597 26.657671
vt 25.187597 23.157681
vt 25.187597 21.657690
vt 28.642981 25.157681
vt 28.642981 26.657671
vt 28.642981 23.157681
vt 28.642981 21.657690
vt 32.098351 25.157681
vt 32.098351 26.657671
vt 32.098351 23.157681
vt 32.098351 21.657690
vt 35.553726 25.157681
vt 35.553726 26.657671
vt 35.553726 23.157681
vt 35.553726 21.657690
vt 37.031345 23.157681
vt 37.031345 25.157681
vt -68.107368 19.657690
vt -64.651970 19.657690
vt -61.196648 19.657690
vt -57.741234 19.657690
vt -54.285892 19.657690
vt -50.830513 19.657690
vt -47.375156 19.657690
vt -43.919800 19.657690
vt -40.464439 19.657690
vt -37.009029 19.657690
vt -33.553692 19.657690
vt -30.098291 19.657690
vt -26.642962 19.657690
vt -23.187595 19.657690
vt -19.732210 19.657690
vt -16.276840 19.657690
vt -12.821466 19.657690
vt -9.366119 19.657690
vt -5.910727 19.657690
vt -2.455372 19.657690
vt 1.000015 19.657690
vt 4.455365 19.657690
vt 7.910757 19.657690
vt 11.366125 19.657690
vt 14.821486 19.657690
vt 18.276865 19.657690
vt 21.732231 19.657690
vt 25.187597 19.657690
vt 28.642981 19.657690
vt 32.098351 19.657690
vt 35.553726 19.657690
s 0
usemtl Prototype_512x512_Yellow
f 3/1/1 4/2/1 2/3/1 1/4/1
f 1/4/2 6/5/3 5/6/3 3/7/2
f 8/8/4 2/3/5 4/9/5 7/10/4
f 6/5/3 10/11/6 9/12/6 5/6/3
f 12/13/7 8/8/4 7/10/4 11/14/7
f 10/11/6 14/15/8 13/16/8 9/12/6
f 16/17/9 12/13/7 11/14/7 15/18/9
f 14/15/8 18/19/10 17/20/10 13/16/8
f 20/21/11 16/17/9 15/18/9 19/22/11
f 18/19/10 22/23/12 21/24/12 17/20/10
f 24/25/13 20/21/11 19/22/11 23/26/13
f 22/23/12 26/27/14 25/28/14 21/24/12
f 28/29/15 24/25/13 23/26/13 27/30/15
f 26/27/14 30/31/16 29/32/16 25/28/14
f 32/33/17 28/29/15 27/30/15 31/34/17
f 30/31/16 34/35/18 33/36/18 29/32/16
f 36/37/19 32/33/17 31/34/17 35/38/19
f 34/35/18 38/39/20 37/40/20 33/36/18
f 40/41/21 36/37/19 35/38/19 39/42/21
f 38/39/20 42/43/22 41/44/22 37/40/20
f 44/45/23 40/41/21 39/42/21 43/46/23
f 42/43/22 46/47/24 45/48/24 41/44/22
f 48/49/25 44/45/23 43/46/23 47/50/25
f 46/47/24 50/51/26 49/52/26 45/48/24
f 52/53/27 48/49/28 47/50/28 51/54/27
f 50/51/26 54/55/29 53/56/29 49/52/26
f 56/57/30 52/53/27 51/54/27 55/58/30
f 54/55/29 58/59/31 57/60/31 53/56/29
f 60/61/32 56/57/30 55/58/30 59/62/32
f 58/59/33 62/63/34 61/64/34 57/60/33
f 64/65/35 60/61/36 59/62/36 63/66/35
f 62/63/34 66/67/37 65/68/37 61/64/34
f 68/69/38 64/65/35 63/66/35 67/70/38
f 66/67/39 70/71/40 69/72/40 65/68/39
f 72/73/41 68/69/42 67/70/42 71/74/41
f 70/71/40 74/75/43 73/76/43 69/72/40
f 76/77/44 72/73/45 71/74/45 75/78/44
f 74/75/43 78/79/46 77/80/46 73/76/43
f 80/81/47 76/77/44 75/78/44 79/82/47
f 78/79/46 82/83/48 81/84/48 77/80/46
f 84/85/49 80/81/47 79/82/47 83/86/49
f 82/83/48 86/87/50 85/88/50 81/84/48
f 88/89/51 84/85/49 83/86/49 87/90/51
f 86/87/50 90/91/52 89/92/52 85/88/50
f 92/93/53 88/89/51 87/90/51 91/94/53
f 90/91/54 94/95/55 93/96/55 89/92/54
f 96/97/56 92/93/57 91/94/57 95/98/56
f 94/95/58 98/99/59 97/100/59 93/96/58
f 100/101/60 96/97/56 95/98/56 99/102/60
f 98/99/59 102/103/61 101/104/61 97/100/59
f 104/105/62 100/101/60 99/102/60 103/106/62
f 102/103/61 106/107/63 105/108/63 101/104/61
f 108/109/64 104/105/62 103/106/62 107/110/64
f 106/107/65 110/111/66 109/112/66 105/108/65
f 112/113/67 108/109/64 107/110/64 111/114/67
f 110/111/66 114/115/68 113/116/68 109/112/66
f 116/117/69 112/113/67 111/114/67 115/118/69
f 114/115/68 118/119/70 117/120/70 113/116/68
f 120/121/71 116/117/69 115/118/69 119/122/71
f 118/119/70 122/123/72 121/124/72 117/120/70
f 124/125/73 120/121/73 119/122/73 123/126/73
f 123/127/74 121/128/74 122/123/74 124/125/74
f 2/3/75 8/8/75 6/5/75 1/4/75
f 7/10/76 4/9/76 3/129/76 5/130/76
f 8/8/75 12/13/75 10/11/75 6/5/75
f 11/14/76 7/10/76 5/130/76 9/131/76
f 12/13/75 16/17/75 14/15/75 10/11/75
f 15/18/76 11/14/76 9/131/76 13/132/76
f 16/17/75 20/21/75 18/19/75 14/15/75
f 19/22/76 15/18/76 13/132/76 17/133/76
f 20/21/75 24/25/75 22/23/75 18/19/75
f 23/26/76 19/22/76 17/133/76 21/134/76
f 24/25/75 28/29/75 26/27/75 22/23/75
f 27/30/76 23/26/76 21/134/76 25/135/76
f 28/29/75 32/33/75 30/31/75 26/27/75
f 31/34/76 27/30/76 25/135/76 29/136/76
f 32/33/75 36/37/75 34/35/75 30/31/75
f 35/38/76 31/34/76 29/136/76 33/137/76
f 36/37/75 40/41/75 38/39/75 34/35/75
f 39/42/76 35/38/76 33/137/76 37/138/76
f 40/41/75 44/45/75 42/43/75 38/39/75
f 43/46/76 39/42/76 37/138/76 41/139/76
f 44/45/75 48/49/75 46/47/75 42/43/75
f 47/50/76 43/46/76 41/139/76 45/140/76
f 48/49/75 52/53/75 50/51/75 46/47/75
f 51/54/76 47/50/76 45/140/76 49/141/76
f 52/53/75 56/57/75 54/55/75 50/51/75
f 55/58/76 51/54/76 49/141/76 53/142/76
f 56/57/75 60/61/75 58/59/75 54/55/75
f 59/62/76 55/58/76 53/142/76 57/143/76
f 60/61/75 64/65/75 62/63/75 58/59/75
f 63/66/76 59/62/76 57/143/76 61/144/76
f 64/65/75 68/69/75 66/67/75 62/63/75
f 67/70/76 63/66/76 61/144/76 65/145/76
f 68/69/75 72/73/75 70/71/75 66/67/75
f 71/74/76 67/70/76 65/145/76 69/146/76
f 72/73/75 76/77/75 74/75/75 70/71/75
f 75/78/76 71/74/76 69/146/76 73/147/76
f 76/77/75 80/81/75 78/79/75 74/75/75
f 79/82/76 75/78/76 73/147/76 77/148/76
f 80/81/75 84/85/75 82/83/75 78/79/75
f 83/86/76 79/82/76 77/148/76 81/149/76
f 84/85/75 88/89/75 86/87/75 82/83/75
f 87/90/76 83/86/76 81/149/76 85/150/76
f 88/89/75 92/93/75 90/91/75 86/87/75
f 91/94/76 87/90/76 85/150/76 89/151/76
f 92/93/75 96/97/75 94/95/75 90/91/75
f 95/98/76 91/94/76 89/151/76 93/152/76
f 96/97/75 100/101/75 98/99/75 94/95/75
f 99/102/76 95/98/76 93/152/76 97/153/76
f 100/101/75 104/105/75 102/103/75 98/99/75
f 103/106/76 99/102/76 97/153/76 101/154/76
f 104/105/75 108/109/75 106/107/75 102/103/75
f 107/110/76 103/106/76 101/154/76 105/155/76
f 108/109/75 112/113/75 110/111/75 106/107/75
f 111/114/76 107/110/76 105/155/76 109/156/76
f 112/113/75 116/117/75 114/115/75 110/111/75
f 115/118/76 111/114/76 109/156/76 113/157/76
f 116/117/75 120/121/75 118/119/75 114/115/75
f 119/122/76 115/118/76 113/157/76 117/158/76
f 120/121/75 124/125/75 122/123/75 118/119/75
f 123/126/76 119/122/76 117/158/76 121/159/76
